<?xml version="1.0" encoding="UTF-8" standalone="no"?>
<!DOCTYPE svg PUBLIC "-//W3C//DTD SVG 1.1//EN" "http://www.w3.org/Graphics/SVG/1.1/DTD/svg11.dtd">
<svg width="100%" height="100%" viewBox="0 0 234 94" version="1.1" xmlns="http://www.w3.org/2000/svg" xmlns:xlink="http://www.w3.org/1999/xlink" xml:space="preserve" xmlns:serif="http://www.serif.com/" style="fill-rule:evenodd;clip-rule:evenodd;stroke-linejoin:round;stroke-miterlimit:2;">
    <g transform="matrix(1,0,0,1,-618.821721,-639.164555)">
        <g>
            <g id="Gemini_Generated_Image_1219d61219d61219.png" transform="matrix(1,0,0,1,4,319)">
                <path d="M832.027,379.504C831.833,379.358 832.367,378.935 832.172,378.788C830.921,377.843 830.681,378.279 815.232,368.935C812.503,367.284 810.642,367.13 812.732,364.688C815.914,360.97 816.418,359.746 820.656,362.238C828.009,366.561 827.984,366.481 835.351,370.769C835.678,370.959 838.448,373.126 839.264,372.304C839.938,371.625 834.415,334.662 834.357,334.612C832.882,333.33 832.816,334.976 804.039,368.07C792.911,380.868 779.937,367.384 748.319,354.905C719.267,343.44 698.581,360.143 698.415,358.575C698.153,356.101 712.743,345.988 727.464,343.324C738.058,341.408 738.165,342.43 748.597,339.887C755.217,338.273 824.725,321.331 831.485,320.321C843.343,318.548 842.387,331.754 847.395,365.516C850.039,383.335 847.202,385.966 828.579,389.865C822.692,391.098 822.819,391.36 755.407,407.157C748.758,408.715 738.4,417.772 710.464,411.572C708.058,411.037 709.065,409.483 710.51,409.579C759.575,412.845 766.27,367.587 774.595,371.301C778.595,373.085 780.597,373.534 778.014,377.125C776.514,379.21 776.531,379.139 775.082,381.202C768.287,390.876 762.504,397.331 766.462,396.2C782.719,391.552 790.911,390.131 831.441,380.39L832.027,379.504ZM779.555,359.391C791.173,364.693 793.015,367.794 799.931,359.863C801.907,357.597 824.596,331.58 824.599,331.508C824.654,329.781 823.386,330.956 790.58,338.819C755.61,347.201 753.549,346.609 754.669,348.359C754.954,348.804 777.555,358.53 779.555,359.391Z" style="fill:rgb(28,67,173);"/>
                <path d="M699.312,365.447C726.058,345.545 741.233,362.842 742.566,363.292C747.38,364.914 736.616,355.192 741.434,356.951C748.988,359.708 766.613,367.466 767.335,368.589C767.341,368.598 765.101,376.541 747.537,394.619L746.612,394.356C746.757,393.859 746.243,393.982 746.378,393.519C746.497,393.114 746.513,393.152 748.191,388.568C747.968,388.164 748.316,388.154 748.09,387.744C748.037,387.649 748.09,387.744 746.725,387.775C744.958,390.748 733.346,410.285 706.472,403.542C697.891,401.389 710.262,403.634 717.21,398.154C717.453,397.962 726.213,391.054 717.461,394.292C712.519,396.12 697.277,393.551 695.546,393.26C676.03,389.971 617.629,404.966 615.597,403.335C614.084,402.121 614.969,401.744 616.673,400.806C617.706,401.001 617.63,400.977 618.606,400.694C625.58,399.396 633.375,397.277 634.647,396.932C678.948,384.893 679.601,386.213 695.762,375.923C710.071,366.812 719.098,369.828 713.852,367.174C713.81,367.153 711.501,364.597 699.466,366.544L699.312,365.447Z" style="fill:rgb(239,48,44);"/>
                <path d="M734.495,383.387C725.507,387.031 718.984,382.649 712.436,382.922C708.83,383.072 710.098,381.451 710.283,381.344C714.011,379.198 723.456,374.345 724.609,373.752C727.668,372.181 734.151,372.988 730.247,368.791C727.39,365.721 719.456,363.071 725.428,363.061C727.373,363.058 745.249,364.409 744.412,372.496L743.366,374.511C743.34,377.169 741.589,377.2 742.98,379.5C743.476,380.319 744.416,380.806 744.912,381.625C743.633,385.153 743.495,385.01 740.967,387.806C733.208,395.367 728.84,395.246 730.661,392.607C733.711,388.187 736.023,388.601 734.495,383.387Z" style="fill:rgb(248,80,42);"/>
                <path d="M689.195,374.079C686.422,375.69 678.656,380.2 650.5,384.559C635.166,386.933 657.596,380.302 658.284,380.098C679.082,373.95 699.97,366.412 689.195,374.079Z" style="fill:rgb(240,166,156);"/>
                <path d="M657.537,406.407C656.763,404.421 657.632,404.392 659.667,403.896C687.703,397.057 689.822,397.423 692.449,397.876C692.76,397.93 704.955,400.035 693.519,401.674C690.645,402.086 660.268,406.441 657.537,406.407Z" style="fill:rgb(239,163,153);"/>
            </g>
        </g>
    </g>
</svg>
